<svg width="320" height="449" viewBox="0 0 320 449" fill="none" xmlns="http://www.w3.org/2000/svg">
<path d="M22.9999 1.9C12.4999 5.4 2.99993 16 0.799925 26.7C-3.50008 47.3 17.0999 67.9 37.6999 63.6C53.1999 60.4 65.1999 44.6 63.6999 29.7C62.5999 19.2 54.6999 8.4 44.6999 3.5C38.5999 0.600002 29.1999 -0.0999966 22.9999 1.9Z" fill="#E8AD55"/>
<path d="M151 1.9C135.9 6.9 125.7 23.5 128.8 38.1C131.3 50 142.4 61.1 154.2 63.6C173.6 67.7 193.7 49.4 191.7 29.7C190.6 19.2 182.7 8.4 172.7 3.5C166.6 0.600002 157.2 -0.0999966 151 1.9Z" fill="#E8AD55"/>
<path d="M279 1.9C268.5 5.4 259 16 256.8 26.7C252.5 47.3 273.1 67.9 293.7 63.6C309.2 60.4 321.2 44.6 319.7 29.7C318.6 19.2 310.7 8.4 300.7 3.5C294.6 0.600002 285.2 -0.0999966 279 1.9Z" fill="#E8AD55"/>
<path d="M22.9999 129.9C12.4999 133.4 2.99993 144 0.799925 154.7C-3.50008 175.3 17.0999 195.9 37.6999 191.6C53.1999 188.4 65.1999 172.6 63.6999 157.7C62.5999 147.2 54.6999 136.4 44.6999 131.5C38.5999 128.6 29.1999 127.9 22.9999 129.9Z" fill="#E8AD55"/>
<path d="M151 129.9C135.9 134.9 125.7 151.5 128.8 166.1C131.3 178 142.4 189.1 154.2 191.6C173.6 195.7 193.7 177.4 191.7 157.7C190.6 147.2 182.7 136.4 172.7 131.5C166.6 128.6 157.2 127.9 151 129.9Z" fill="#E8AD55"/>
<path d="M279 129.9C268.5 133.4 259 144 256.8 154.7C252.5 175.3 273.1 195.9 293.7 191.6C309.2 188.4 321.2 172.6 319.7 157.7C318.6 147.2 310.7 136.4 300.7 131.5C294.6 128.6 285.2 127.9 279 129.9Z" fill="#E8AD55"/>
<path d="M22.9999 257.9C12.4999 261.4 2.99993 272 0.799925 282.7C-3.50008 303.3 17.0999 323.9 37.6999 319.6C53.1999 316.4 65.1999 300.6 63.6999 285.7C62.5999 275.2 54.6999 264.4 44.6999 259.5C38.5999 256.6 29.1999 255.9 22.9999 257.9Z" fill="#E8AD55"/>
<path d="M151 257.9C140.5 261.4 131 272 128.8 282.7C124.5 303.3 145.1 323.9 165.7 319.6C181.2 316.4 193.2 300.6 191.7 285.7C190.6 275.2 182.7 264.4 172.7 259.5C166.6 256.6 157.2 255.9 151 257.9Z" fill="#E8AD55"/>
<path d="M279 257.9C268.5 261.4 259 272 256.8 282.7C252.5 303.3 273.1 323.9 293.7 319.6C309.2 316.4 321.2 300.6 319.7 285.7C318.6 275.2 310.7 264.4 300.7 259.5C294.6 256.6 285.2 255.9 279 257.9Z" fill="#E8AD55"/>
<path d="M22.9999 385.9C12.4999 389.4 2.99993 400 0.799925 410.7C-3.50008 431.3 17.0999 451.9 37.6999 447.6C53.1999 444.4 65.1999 428.6 63.6999 413.7C62.5999 403.2 54.6999 392.4 44.6999 387.5C38.5999 384.6 29.1999 383.9 22.9999 385.9Z" fill="#E8AD55"/>
<path d="M151 385.9C140.5 389.4 131 400 128.8 410.7C124.5 431.3 145.1 451.9 165.7 447.6C181.2 444.4 193.2 428.6 191.7 413.7C190.6 403.2 182.7 392.4 172.7 387.5C166.6 384.6 157.2 383.9 151 385.9Z" fill="#E8AD55"/>
<path d="M279 385.9C268.5 389.4 259 400 256.8 410.7C252.5 431.3 273.1 451.9 293.7 447.6C309.2 444.4 321.2 428.6 319.7 413.7C318.6 403.2 310.7 392.4 300.7 387.5C294.6 384.6 285.2 383.9 279 385.9Z" fill="#E8AD55"/>
</svg>
